{
    "accessors": {
        "accessor_21": {
            "bufferView": "bufferView_29",
            "byteOffset": 0,
            "byteStride": 2,
            "componentType": 5123,
            "count": 2568,
            "max": [
                1283
            ],
            "min": [
                0
            ],
            "type": "SCALAR"
        },
        "accessor_23": {
            "bufferView": "bufferView_30",
            "byteOffset": 0,
            "byteStride": 12,
            "componentType": 5126,
            "count": 2568,
            "max": [
                0.204007,
                0.235909,
                2.69351
            ],
            "min": [
                -0.215716,
                -0.227728,
                0
            ],
            "type": "VEC3"
        },
        "accessor_25": {
            "bufferView": "bufferView_30",
            "byteOffset": 30816,
            "byteStride": 12,
            "componentType": 5126,
            "count": 2568,
            "max": [
                0.99669,
                0.999752,
                1
            ],
            "min": [
                -0.99865,
                -0.999906,
                -1
            ],
            "type": "VEC3"
        }
    },
    "animations": {},
    "asset": {
        "generator": "collada2gltf@0e0246bf330a4b34ee1d331960e5e82533540ba5",
        "premultipliedAlpha": true,
        "profile": {
            "api": "WebGL",
            "version": "1.0.2"
        },
        "version": "1.0.1"
    },
    "bufferViews": {
        "bufferView_29": {
            "buffer": "fan",
            "byteLength": 5136,
            "byteOffset": 0,
            "target": 34963
        },
        "bufferView_30": {
            "buffer": "fan",
            "byteLength": 61632,
            "byteOffset": 5136,
            "target": 34962
        }
    },
    "buffers": {
        "fan": {
            "byteLength": 66768,
            "type": "arraybuffer",
            "uri": "fan.bin"
        }
    },
    "extensionsUsed": [
        "KHR_materials_common"
    ],
    "materials": {
        "Material-effect": {
            "extensions": {
                "KHR_materials_common": {
                    "doubleSided": false,
                    "jointCount": 0,
                    "technique": "PHONG",
                    "transparent": false,
                    "values": {
                        "ambient": [
                            0,
                            0,
                            0,
                            1
                        ],
                        "diffuse": [
                            0.64,
                            0.64,
                            0.64,
                            1
                        ],
                        "emission": [
                            0,
                            0,
                            0,
                            1
                        ],
                        "shininess": 50,
                        "specular": [
                            0.5,
                            0.5,
                            0.5,
                            1
                        ]
                    }
                }
            },
            "name": "Material"
        }
    },
    "meshes": {
        "fan-mesh": {
            "name": "fan",
            "primitives": [
                {
                    "attributes": {
                        "NORMAL": "accessor_25",
                        "POSITION": "accessor_23"
                    },
                    "indices": "accessor_21",
                    "material": "Material-effect",
                    "mode": 4
                }
            ]
        }
    },
    "nodes": {
        "Cylinder_001": {
            "children": [],
            "matrix": [
                0.133333,
                0,
                0,
                0,
                0,
                0.133333,
                0,
                0,
                0,
                0,
                0.1,
                0,
                0,
                0,
                0,
                1
            ],
            "meshes": [
                "fan-mesh"
            ],
            "name": "Cylinder_001"
        },
        "node_1": {
            "children": [
                "Cylinder_001"
            ],
            "matrix": [
                1,
                0,
                0,
                0,
                0,
                0,
                -1,
                0,
                0,
                1,
                0,
                0,
                0,
                0,
                0,
                1
            ],
            "name": "Y_UP_Transform"
        }
    },
    "scene": "defaultScene",
    "scenes": {
        "defaultScene": {
            "nodes": [
                "node_1"
            ]
        }
    },
    "skins": {}
}